<svg width="373" height="75" viewBox="0 0 373 75" fill="none" xmlns="http://www.w3.org/2000/svg">
<path d="M31.5984 31.3469C31.4111 30.5832 31.1157 29.9132 30.7123 29.3369C30.3088 28.7461 29.8045 28.249 29.1994 27.8456C28.6086 27.4277 27.917 27.1179 27.1245 26.9162C26.3464 26.7001 25.4891 26.592 24.5525 26.592C22.5353 26.592 20.8135 27.0747 19.387 28.0401C17.9749 29.0055 16.8943 30.3959 16.145 32.2114C15.4102 34.0269 15.0428 36.217 15.0428 38.7818C15.0428 41.3754 15.3958 43.5943 16.1018 45.4387C16.8078 47.283 17.8597 48.695 19.2573 49.6748C20.655 50.6546 22.3912 51.1445 24.4661 51.1445C26.296 51.1445 27.8161 50.878 29.0265 50.3448C30.2512 49.8117 31.1662 49.0553 31.7713 48.0755C32.3765 47.0957 32.6791 45.943 32.6791 44.6174L34.7539 44.8335H24.639V36.2747H44.2637V42.4128C44.2637 46.4473 43.4064 49.8982 41.6918 52.7655C39.9915 55.6184 37.6429 57.8086 34.6459 59.3359C31.6633 60.8488 28.2412 61.6053 24.3796 61.6053C20.0714 61.6053 16.2891 60.6903 13.0327 58.8604C9.77635 57.0305 7.2332 54.4225 5.40329 51.0365C3.58778 47.6504 2.68003 43.6232 2.68003 38.9547C2.68003 35.2949 3.23477 32.0529 4.34424 29.2288C5.46813 26.4047 7.02427 24.02 9.01268 22.0748C11.0011 20.1152 13.2993 18.6384 15.9073 17.6441C18.5153 16.6355 21.3106 16.1312 24.2932 16.1312C26.9156 16.1312 29.3507 16.5059 31.5984 17.2551C33.8606 17.99 35.8562 19.0418 37.5853 20.4106C39.3287 21.7651 40.7336 23.3716 41.7998 25.2304C42.8661 27.0891 43.5145 29.1279 43.745 31.3469H31.5984ZM60.058 16.7364V61.0001H48.0411V16.7364H60.058ZM75.4253 61.0001H62.4575L77.0679 16.7364H93.4939L108.104 61.0001H95.1365L85.4539 28.9262H85.108L75.4253 61.0001ZM73.0047 43.5367H97.3843V52.5278H73.0047V43.5367ZM148.84 16.7364V61.0001H138.812L122.818 37.7444H122.559V61.0001H110.542V16.7364H120.743L136.478 39.9057H136.823V16.7364H148.84ZM151.488 26.4191V16.7364H189.96V26.4191H176.646V61.0001H164.802V26.4191H151.488ZM192.656 61.0001V16.7364H211.849C215.22 16.7364 218.052 17.1903 220.343 18.098C222.648 19.0058 224.384 20.2882 225.552 21.9452C226.733 23.6022 227.324 25.5546 227.324 27.8023C227.324 29.4305 226.964 30.9146 226.243 32.2546C225.537 33.5946 224.543 34.7185 223.261 35.6263C221.978 36.5196 220.48 37.1392 218.765 37.485V37.9173C220.667 37.9893 222.396 38.472 223.952 39.3654C225.508 40.2443 226.747 41.4618 227.67 43.018C228.592 44.5597 229.053 46.3752 229.053 48.4645C229.053 50.8852 228.419 53.0393 227.151 54.9268C225.897 56.8144 224.111 58.2985 221.791 59.3791C219.471 60.4598 216.705 61.0001 213.491 61.0001H192.656ZM204.673 51.4039H210.293C212.31 51.4039 213.823 51.0293 214.831 50.28C215.84 49.5163 216.344 48.3925 216.344 46.9083C216.344 45.8709 216.107 44.992 215.631 44.2715C215.156 43.5511 214.478 43.0036 213.599 42.6289C212.735 42.2543 211.69 42.067 210.466 42.067H204.673V51.4039ZM204.673 34.6321H209.601C210.653 34.6321 211.582 34.4664 212.389 34.135C213.196 33.8036 213.823 33.3281 214.27 32.7085C214.731 32.0745 214.961 31.3037 214.961 30.3959C214.961 29.0271 214.471 27.9824 213.491 27.262C212.512 26.5272 211.272 26.1597 209.774 26.1597H204.673V34.6321Z" fill="white"/>
<path d="M279.853 16.7364H294.809L305.097 41.8076H305.616L315.904 16.7364H330.86V61.0001H319.102V35.4102H318.757L308.901 60.6543H301.812L291.956 35.2372H291.61V61.0001H279.853V16.7364ZM334.729 61.0001V16.7364H353.922C357.293 16.7364 360.125 17.1903 362.416 18.098C364.721 19.0058 366.457 20.2882 367.624 21.9452C368.806 23.6022 369.397 25.5546 369.397 27.8023C369.397 29.4305 369.036 30.9146 368.316 32.2546C367.61 33.5946 366.616 34.7185 365.333 35.6263C364.051 36.5196 362.552 37.1392 360.838 37.485V37.9173C362.74 37.9893 364.469 38.472 366.025 39.3654C367.581 40.2443 368.82 41.4618 369.742 43.018C370.665 44.5597 371.126 46.3752 371.126 48.4645C371.126 50.8852 370.492 53.0393 369.224 54.9268C367.97 56.8144 366.183 58.2985 363.864 59.3791C361.544 60.4598 358.777 61.0001 355.564 61.0001H334.729ZM346.746 51.4039H352.365C354.383 51.4039 355.896 51.0293 356.904 50.28C357.913 49.5163 358.417 48.3925 358.417 46.9083C358.417 45.8709 358.179 44.992 357.704 44.2715C357.228 43.5511 356.551 43.0036 355.672 42.6289C354.808 42.2543 353.763 42.067 352.538 42.067H346.746V51.4039ZM346.746 34.6321H351.674C352.726 34.6321 353.655 34.4664 354.462 34.135C355.269 33.8036 355.896 33.3281 356.342 32.7085C356.803 32.0745 357.034 31.3037 357.034 30.3959C357.034 29.0271 356.544 27.9824 355.564 27.262C354.584 26.5272 353.345 26.1597 351.847 26.1597H346.746V34.6321Z" fill="white"/>
<path d="M264.921 5.41304C265.179 5.66717 265.091 5.59611 265.258 5.83397C265.346 5.95908 265.501 6.03045 265.538 6.19542L265.681 6.20324L265.833 6.02163C265.805 6.18468 265.773 6.35908 265.839 6.5193C265.86 6.56935 266.222 6.91722 266.32 6.9334L266.321 6.6907C266.43 6.6559 266.464 6.7817 266.544 6.79833C266.843 6.86103 266.849 6.25506 266.902 6.08356C266.952 5.92597 267.145 5.86755 267.167 5.80017C267.219 5.63796 267.073 5.56452 267.049 5.43995C267.026 5.3265 267.204 5.36874 267.214 5.19442C267.226 4.9925 267.119 4.71192 267.112 4.50104C267.303 4.46809 267.204 4.56061 267.232 4.65129C267.272 4.77962 267.424 5.59679 267.666 5.2539C267.713 5.18774 267.688 5.05084 267.842 5.00591L267.963 4.56145V5.68672L268.065 5.77058L268.238 5.73823L268.327 5.8122C268.218 5.98767 268.364 6.13708 268.364 6.23466C268.364 6.27398 268.283 6.31753 268.295 6.38867C268.315 6.50963 268.509 6.70526 268.513 6.83987L268.304 6.9291C268.135 7.1646 268.459 7.1429 268.498 7.18967C268.538 7.23773 268.546 7.56207 268.754 7.63352L268.601 7.84709L268.854 8.07675C269.291 8.02294 269.529 7.61473 269.262 7.23351L268.876 7.29845C268.872 6.97878 269.217 7.30282 269.243 7.02616L268.583 3.92082L268.633 3.71009C268.661 3.68801 268.787 3.81733 268.803 3.87444C268.894 4.19456 268.897 4.72764 268.951 5.06417C268.971 5.19082 269.054 5.32979 269.072 5.46417L269.241 5.47444L269.119 5.86839L269.241 5.93109C269.29 5.89561 269.393 5.69246 269.397 5.62707C269.407 5.42738 269.18 4.94773 269.18 4.83527V3.92289C269.18 3.8677 269.02 3.72259 269.24 3.64922C269.218 4.36812 269.559 5.05881 269.545 5.77786C269.621 5.85605 270.391 5.47245 269.85 5.35102L270.069 5.07866C269.87 4.7442 270.084 4.76973 270.098 4.65735C270.19 3.93447 270.161 3.07758 270.215 2.34205C270.241 1.98682 270.392 1.46347 270.334 1.12756C270.317 1.03266 270.215 0.957841 270.215 0.881642C270.215 0.795402 270.402 0.600461 270.345 0.430434L270.51 0.420086L270.64 0C270.656 0.526179 270.553 1.31529 271.309 0.912382L271.313 1.21296C271.583 1.26501 271.889 1.39172 272.152 1.50012C272.251 1.5406 272.446 1.56075 272.404 1.70281C272.133 1.65451 271.832 1.49314 271.565 1.47267C271.416 1.46133 271.295 1.53752 271.173 1.50993C271.049 1.48164 270.881 1.21947 270.76 1.30495C270.672 1.36711 270.533 2.24754 270.525 2.40905C270.519 2.54128 270.612 2.69207 270.583 2.81633C270.568 2.88134 270.424 2.85612 270.395 3.00859C270.376 3.11162 270.382 3.71192 270.425 3.77364L270.637 3.86877L270.754 3.79319L270.641 2.91967L270.915 3.53156C271.019 3.64279 271.271 3.44394 271.28 3.77325C272.425 3.5764 272.644 2.18529 273.166 1.33645C273.212 1.25735 273.155 1.18299 273.317 1.21695L272.526 2.82684C272.543 2.92205 272.599 2.91054 272.679 2.85888C272.779 2.79349 273.734 1.74918 273.803 1.82461L273.479 2.30955C273.524 2.58635 273.489 2.62668 273.257 2.76804L273.439 2.94911C273.419 3.0575 272.932 3.49307 272.77 3.40576C272.717 3.20184 272.918 3.34397 272.954 3.24531C272.972 3.19687 272.952 3.11016 272.982 3.04201C273.006 2.98483 273.286 2.54565 273.104 2.55578C273.055 2.55853 272.435 3.15125 272.378 3.22745C272.286 3.35133 271.85 4.17027 271.919 4.25766C272.182 4.17725 272.302 3.90595 272.345 3.64938C272.631 3.67229 272.535 3.92511 272.405 4.07459C272.687 4.08632 272.858 3.7813 272.892 3.52825C272.996 3.50066 272.921 3.6516 272.984 3.65328C273.258 3.66057 274.197 2.269 274.655 2.31193L272.721 4.23964L272.709 4.43995L272.952 4.37946L272.771 4.77525C272.845 4.9199 273.119 4.85459 273.074 5.04823C272.841 5.02071 272.622 5.07459 272.648 5.3524C272.92 5.3961 273.184 5.39219 273.435 5.25697C273.647 5.14213 273.573 5.05436 273.926 4.98767C273.895 5.02623 273.892 5.11676 273.85 5.15348C273.783 5.21396 273.563 5.20446 273.622 5.32136C273.668 5.41212 273.969 5.49966 274.068 5.46816L274.352 5.01948C274.337 4.91569 273.995 4.97456 273.926 4.98767C274.038 4.84585 274.245 4.85972 274.412 4.8043L274.352 4.50151L274.535 4.54366L274.591 4.71929L275.325 4.50165V4.80468L275.015 4.83382C275.008 5.33462 274.189 4.98338 274.412 5.53455C274.208 5.5084 274.076 5.54919 273.956 5.71729L273.893 5.53102C273.666 5.58798 273.188 5.47881 273.047 5.66042C272.971 5.75769 272.96 6.01611 272.799 6.08196C272.572 6.17456 272.833 5.76644 272.89 5.74774C272.74 5.5994 272.477 5.58 272.519 5.82777L272.04 5.89989L272.04 6.14306C272.34 6.00983 272.359 6.35156 272.648 6.20446L272.627 6.43198L272.766 6.54291L272.952 6.44747L272.771 6.81205L272.526 6.32558C272.175 6.313 272.199 6.71454 272.526 6.5692C272.445 6.80683 272.522 6.89975 272.587 7.11653L272.374 6.87437C272.304 6.87231 272.142 7.16637 272.252 7.23788L272.464 7.11691C272.722 7.46426 272.339 7.65552 272.527 8.02868C272.774 8.04961 272.514 7.76774 272.83 7.84594C272.853 7.86932 272.775 8.18928 272.951 8.21137C272.928 8.09063 273.511 7.48649 273.56 7.54237C273.524 7.66526 273.399 7.91623 273.319 8.0004C273.181 8.14582 272.793 8.18905 272.922 8.45522L273.5 8.33379C273.424 8.45161 273.23 8.48327 273.114 8.58576C272.764 8.79006 273.533 8.77771 273.655 8.7922C273.899 8.79672 273.938 8.80416 274.199 8.82623C274.675 8.86671 275.019 8.60576 275.447 8.69868C275.607 8.84747 274.953 8.87016 274.897 8.91018C274.837 8.95264 274.862 9.07032 274.797 9.12812C274.73 9.18767 274.513 9.23949 274.412 9.24609C274.334 9.42578 274.635 9.55832 274.64 9.64004C274.643 9.68665 274.543 9.78385 274.536 9.88702C274.526 10.0259 274.624 10.2183 274.534 10.4008C274.667 10.4315 274.81 10.3286 274.927 10.341C275.025 10.3513 275.09 10.4597 275.231 10.4656C275.475 10.4759 275.872 10.2416 276.177 10.3399C276.212 10.1481 275.926 10.122 275.883 9.99611C275.82 9.81558 275.939 9.57334 275.893 9.44333C275.88 9.40539 275.393 9.07515 275.721 9.06104C275.972 9.05023 276.062 9.19504 276.298 9.18415L276.177 8.6375C276.794 8.80248 276.37 9.62171 277.292 9.17373C277.753 8.94912 278.127 8.5144 278.671 8.51577C278.717 8.66472 278.635 8.65912 278.602 8.70557C278.539 8.79527 278.353 9.03957 278.285 9.10213C278.219 9.16184 277.6 9.5239 277.698 9.61006C278.365 9.56821 279.017 9.71884 279.676 9.79235C279.983 9.82654 280.257 9.74107 280.558 9.9157C280.534 10.1286 280.223 10.1654 280.04 10.1627C279.285 10.1517 278.485 10.1083 277.735 10.1618L277.663 10.0337L277.394 10.0976L277.637 10.4927C277.859 10.7222 278.17 10.9683 278.184 11.3132C277.753 11.332 277.586 10.8302 277.234 10.6592L276.603 10.7362L276.146 11.3124C275.68 10.9531 276.204 10.84 275.511 10.8807L275.475 10.7012L274.273 10.8392C273.803 10.9431 273.316 11.6518 273.257 12.104C273.412 12.0375 273.617 12.0716 273.758 12.028C273.853 11.9986 274.349 11.6066 274.412 11.8922C274.439 12.0138 274.248 12.0615 274.186 12.1258C274.16 12.154 274.183 12.2516 274.158 12.2726C274.122 12.3035 273.981 12.2901 273.891 12.3419C273.848 12.3663 273.506 12.6575 273.5 12.6825C273.468 12.8037 273.754 12.9574 273.864 12.9564L273.621 13.0789L273.683 13.4424L273.925 13.381C273.872 13.7686 274.34 13.4896 274.351 13.8068C274.198 13.7744 274.038 13.8705 273.9 13.8646C273.876 13.8636 273.459 13.78 273.437 13.77C273.236 13.6756 272.918 13.2466 272.648 13.4119C272.514 13.6511 272.423 13.7664 272.162 13.868L272.07 13.6262L271.857 13.7463L272.091 13.1486C271.828 13.0429 271.212 12.3221 271.37 13.0159C271.199 13.0327 271.086 12.7802 270.945 12.9861L271.309 13.4417C271.246 13.5003 271.011 13.1887 270.899 13.1518C270.834 13.1299 270.706 13.114 270.649 13.1484C270.425 13.5087 270.543 13.8981 270.705 14.2592L270.518 14.4142L270.672 14.4718L270.665 14.7192L270.944 14.842C270.917 14.9704 270.655 14.8738 270.701 15.0834L271.005 15.2664L270.579 15.2672C270.562 15.4088 270.703 15.4973 270.823 15.5113L270.701 15.6626L270.827 15.727L270.71 16.0792L270.883 16.3614C270.557 16.2931 270.516 16.6806 270.214 16.6666C270.412 16.8529 270.208 16.8715 270.214 17.0914L270.701 17.0008C270.851 16.8937 270.58 16.7693 270.487 16.9696C270.23 17.0832 270.592 16.4251 270.731 16.6049C270.824 16.7246 270.767 16.891 270.944 16.9394C270.809 17.0845 270.573 17.1572 270.579 17.3956C270.903 17.4674 270.621 17.1414 270.944 17.2141L270.639 17.7299C271.396 17.9523 270.598 17.9582 270.522 18.0705C270.49 18.1177 270.572 18.2456 270.561 18.3284C270.537 18.4978 270.358 18.7536 270.153 18.6727L270.453 18.1637C270.057 17.9466 270.202 17.4976 270.138 17.1428C270.052 16.6618 269.886 16.1761 269.798 15.7075C269.769 15.5132 269.881 15.1516 269.634 14.9648L269.452 15.0223L269.423 15.328C269.194 15.1698 269.099 15.3878 268.876 15.3885L268.918 15.2056L269.116 15.109C269.041 14.5224 268.637 14.809 268.267 14.9017L268.807 14.433C268.834 14.3257 268.612 13.9196 268.632 13.7168C268.641 13.6257 269.001 13.3258 268.785 13.3222C268.689 13.3206 268.429 13.6219 268.341 13.6819C268.236 13.7401 268.08 13.6799 268.08 13.8641C268.048 13.8844 267.505 13.5713 267.356 13.8378L267.627 14.1693L267.812 14.0514C268.157 13.973 267.442 14.8128 267.413 14.9917C267.321 15.2212 267.214 15.5128 267.232 15.7541C266.918 15.6403 266.822 15.9866 266.654 16.1792C266.551 15.9845 266.448 15.8349 266.199 15.8752L266.144 16.173L266.32 16.331C265.915 16.5961 265.807 16.8202 266.258 17.1223C265.964 17.3132 265.814 17.5879 265.833 17.9438C265.533 17.9994 265.441 17.6877 265.194 17.5799L265.104 17.7293C265.609 18.3429 265.907 17.9426 265.828 18.5737L265.589 18.674C281.696 28.3049 281.928 51.6662 265.165 60.7357C252.237 67.6907 236.047 61.2418 231.334 47.4754C225.685 31.3095 238.763 14.5805 255.688 15.8596C256.141 15.8019 258.474 15.1423 258.856 14.9495C258.945 14.905 258.946 14.7926 259.001 14.7788C260.118 14.7848 261.275 14.1303 262.353 13.8248C262.997 13.6203 263.669 13.4693 264.312 13.2588L264.191 12.9855L264.317 12.9223L264.252 12.7125C264.474 12.6855 264.334 13.0903 264.618 12.9244L264.556 12.6519L264.773 12.8934C265.001 12.9029 265.069 12.5628 265.226 12.4955C265.247 12.4863 265.51 12.6657 265.62 12.412C265.671 12.2951 265.455 12.1204 265.774 12.0116C265.413 11.4984 266.263 11.853 266.258 11.6477C266.156 11.5205 265.383 10.8755 265.469 10.7658C265.649 10.9077 265.683 10.8464 265.834 10.8265C265.833 11.1994 266.599 11.7846 266.746 11.4643L266.2 11.1002L266.442 10.8558C266.495 10.6101 265.987 10.8064 265.834 10.8265C265.834 10.7937 265.924 10.6974 265.889 10.6242C265.841 10.4705 265.382 10.4012 265.225 10.4011C265.209 10.4161 265.343 10.7944 265.165 10.826C265.103 10.7479 264.813 10.3097 264.785 10.2939C264.757 10.2783 264.193 10.151 264.162 10.1572C264.089 10.1717 264.062 10.235 264.129 10.3106C264.228 10.4242 264.391 10.4072 264.434 10.5217L263.954 10.5292C263.93 11.1982 264.375 11.2162 264.921 11.2525C264.959 11.6248 264.322 11.6196 264.07 11.5565L264.069 11.9818C263.964 11.9898 264.015 11.8434 263.953 11.7644C263.42 11.4968 262.278 12.0865 261.79 12.1045C261.68 12.0939 261.586 12.0016 261.573 11.8907C261.573 11.4698 263.091 11.5668 263.217 11.4338C263.233 11.4168 263.247 11.2685 263.144 11.3272L262.183 11.192C262.673 11.1627 263.229 11.2188 263.643 10.9467L263.218 10.3405C263.547 10.311 263.87 10.9905 263.948 10.4011C263.758 10.4329 263.638 10.2476 263.489 10.2204C263.2 10.1679 263.015 10.4032 262.912 10.037L262.791 10.0669L262.856 10.5194C263.053 10.4969 263.262 10.6268 263.308 10.8271L262.792 10.5844L262.732 10.7043C262.635 10.3257 262.313 10.574 262.164 10.5688C261.945 10.5613 261.417 10.3469 261.117 10.3942L260.755 10.6462L260.629 10.4666L260.419 10.5221L260.461 10.3695L260.38 10.2878C260.06 10.2559 259.735 10.2989 259.415 10.2784C258.873 10.2435 258.231 10.1066 257.708 10.0939C257.6 10.0912 257.505 10.0923 257.438 10.1881L257.62 10.2784C257.445 10.3224 257.206 10.177 257.054 10.2149C257 10.2283 257 10.3405 256.909 10.3871C256.878 10.4029 256.48 10.5387 256.464 10.5221L256.578 10.239L256.485 10.105C256.298 10.0466 256.121 10.1792 256.017 10.1618C255.965 10.153 255.96 10.0386 255.913 10.0117C255.529 9.79427 254.948 9.91148 254.517 9.73149L254.517 9.91462L254.274 9.79251C254.315 9.98071 254.413 10.0723 254.334 10.2787C254.222 10.289 254.299 10.143 254.217 10.0672C254.196 10.0478 254.107 10.0968 254.063 10.0379C254.016 9.97319 254.03 9.82738 253.933 9.79504C253.75 9.73441 253.497 10.0864 253.33 10.1571L253.297 9.98086L252.996 9.97434L253.239 9.64134L252.815 9.51769L252.75 9.33939L252.97 9.11915L253.3 9.24486C253.391 8.94267 253.027 9.1255 253.057 8.88051L253.726 8.94076L253.544 7.96782C253.835 8.20025 253.653 8.79174 254 8.94061C254.095 8.78032 253.848 8.53555 254.091 8.45452L254.182 8.75824L254.396 8.27239L254.457 8.63658L254.76 8.45445C254.503 9.2339 255.508 8.30121 255.734 8.27223C255.837 8.37242 255.114 8.71776 255.027 8.81788C254.962 8.89285 254.99 8.96575 254.965 9.00185C254.895 9.10136 254.701 9.09009 254.761 9.30558L255.734 9.24433L255.491 8.91025C255.611 8.81918 255.742 9.06817 255.859 9.14988C255.97 9.22739 256.099 9.25345 256.203 9.32428C256.257 9.36069 256.256 9.49784 256.384 9.53747C256.672 9.62662 257.029 9.48074 257.206 9.55494C257.929 9.85836 258.558 9.8277 259.353 9.91493C259.671 9.94973 260.077 10.0956 260.387 10.0933C260.472 10.0927 260.561 9.95855 260.662 10.0361C260.668 9.89048 260.609 9.67177 260.783 9.61006C260.688 9.98883 261.216 10.3516 261.535 10.1606C261.608 10.1173 261.562 9.98959 261.607 9.91509C261.648 9.84977 261.841 9.87492 261.751 9.64702C261.71 9.54176 261.565 9.59151 261.575 9.48909L261.817 9.39719C261.68 9.16392 261.328 9.31531 261.21 9.06326C261.311 9.09493 261.432 8.96476 261.484 8.96414C261.579 8.96315 261.855 9.27085 262 9.03214L261.15 8.08933L261.788 8.57479C261.953 8.4707 261.929 8.31677 261.969 8.14628L262.17 8.13755L262.213 8.02861C262.293 8.14972 262.366 8.12336 262.487 8.08917C262.568 8.18461 262.068 9.0001 262.487 9.00147L262.669 8.63705C262.789 8.87829 262.739 9.45851 263.117 9.3705C263.183 9.35525 263.155 9.11768 263.616 9.18108C263.742 9.19841 264.077 9.27315 264.21 9.3042C264.27 9.31823 264.261 9.43804 264.353 9.47591C264.444 9.51293 265.334 9.77488 265.388 9.77679C265.528 9.78163 265.896 9.5505 265.896 9.39772L265.712 9.24556L265.955 9.18492L265.347 8.94015L265.53 8.81796C265.58 8.74253 265.183 8.53577 265.073 8.53999C265.026 8.54176 264.761 8.6257 264.8 8.72719C264.88 8.93585 265.539 9.02693 265.651 9.24448C264.407 8.73409 263.135 8.15241 261.94 7.51125C262.502 7.36053 263.806 8.52512 264.422 8.62302C264.63 8.67238 264.831 8.55962 264.98 8.42447L264.738 8.24141L264.949 8.21175L264.982 8.09047C264.81 8.1117 264.778 7.8963 264.723 7.86187C264.668 7.82815 264.567 7.85529 264.499 7.81435C264.421 7.76743 264.377 7.58277 264.282 7.54252C264.172 7.4966 264.166 7.63198 264.193 7.692C264.232 7.77763 264.551 7.892 264.556 8.08879L264.116 7.96376C263.992 7.78644 263.802 7.71677 263.583 7.72404L263.644 7.4204L263.947 7.54168C263.984 7.2677 263.792 7.08564 263.522 7.11577L263.58 6.94091C263.405 6.85229 263.232 6.73646 263.074 6.62117C262.993 6.56222 262.96 6.4434 262.911 6.4132C262.849 6.37395 262.76 6.44808 262.74 6.43666C262.711 6.4204 262.64 6.18069 262.597 6.15601C262.378 6.02807 262.224 6.48679 261.94 6.38568C262.025 6.20676 262.209 5.98353 262.363 5.86525C262.52 5.74405 262.777 5.80147 262.513 5.54137C262.323 5.65283 262.143 5.51446 261.975 5.53439C261.827 5.5521 261.579 5.77694 261.392 5.77878L261.757 6.0815C261.628 6.16705 260.904 5.67843 261.026 6.05183C261.222 6.25773 263.105 7.14482 262.974 7.35915L261.842 6.69522L261.698 6.78162L261.939 7.05528C261.909 7.08365 261.568 6.81573 261.479 6.80898C261.356 6.79963 261.286 6.9117 261.24 6.91224C261.194 6.91278 261.114 6.78591 260.998 6.81175L260.917 6.94904L261.087 8.08925L260.845 7.87544C260.815 7.74382 260.972 7.82677 260.971 7.69821C260.969 7.36905 260.708 6.87959 260.783 6.50779L260.632 6.69101L260.48 7.17655L260.601 6.26487C260.321 6.19281 260.378 6.36053 260.271 6.44892C260.126 6.56928 259.962 6.66356 259.84 6.81143L259.759 6.80071C259.753 6.64593 259.635 6.68472 259.506 6.68962L260.053 6.2043C259.808 6.0493 259.627 6.32596 259.385 6.23428C259.7 5.98851 260.249 6.23129 260.302 5.69246L259.141 4.77448C259.222 4.66885 259.254 4.66977 259.368 4.72803C259.466 4.77747 260.027 5.49752 260.175 5.35165C260.171 5.25321 260.108 5.11132 260.055 5.03197C260.019 4.97847 259.716 4.84746 259.931 4.74428L260.446 5.41573C260.75 5.62094 260.86 5.13501 260.54 5.10756L260.541 5.04884C260.878 5.10281 260.668 3.97494 260.723 3.74067C260.758 3.26746 260.871 2.79012 260.874 2.30971L260.966 2.24991C260.991 2.48908 260.81 3.57418 260.963 3.68418C261.396 3.59457 261.272 3.73209 261.456 3.85842C261.564 3.93247 261.903 4.02576 261.909 3.8316L262.031 4.01366L262.366 3.52734V4.43972C262.703 4.31461 262.922 5.15708 263.006 5.17195C263.29 5.22186 263.637 4.37954 264.002 4.43343C264.095 4.17824 263.939 4.17057 263.89 4.08932C263.734 3.83611 263.422 3.19656 263.077 3.28164C263.007 3.2989 262.95 3.61089 262.731 3.5268L262.731 2.73707L262.914 2.82959L263.035 2.76574C262.893 2.45228 262.934 2.10602 262.853 1.76374L263.34 2.73661L264.13 2.18981L263.644 2.76705L263.886 2.94926C263.831 3.09775 263.459 2.83105 263.522 3.24953L264.921 5.41304C264.76 5.25444 264.25 4.55869 264.192 4.52696C263.906 4.37073 264.003 4.86617 263.998 4.89062C263.975 4.99617 263.725 4.99893 263.765 5.16935L264.191 5.17027L264.069 5.41204L264.921 5.59525L264.921 5.41304ZM271.979 3.64938C271.647 3.624 271.638 4.0322 271.335 4.0716L271.31 4.62194L271.497 4.5846L271.979 3.64938ZM261.128 4.15639C261.099 4.1265 260.917 4.00645 260.906 4.01419L260.852 5.04087L261.908 5.16973L261.971 5.04815C261.814 4.83772 261.565 4.70994 261.39 4.53378C261.273 4.4168 261.222 4.25513 261.128 4.15639ZM270.579 4.50151L270.336 4.43964C270.229 4.71906 270.386 4.95624 270.22 5.1918C270.256 5.42416 270.742 5.34658 270.397 4.98782L270.762 5.10855C270.796 4.92964 270.47 4.76414 270.457 4.6516C270.453 4.6171 270.656 4.6444 270.579 4.50151ZM261.879 5.35294C261.338 5.30702 260.511 4.82209 260.85 5.7728C261.033 5.84164 261.137 5.66771 261.269 5.6247C261.477 5.55723 261.771 5.60185 261.879 5.35294ZM264.891 5.65636C264.645 5.61381 264.194 5.65636 263.917 5.65636C263.908 5.65636 263.781 5.71783 263.766 5.74688C263.833 5.95517 264.264 6.13293 263.977 6.38598L263.175 5.72389C262.979 5.67222 262.87 5.97233 262.809 6.11347C262.818 6.22094 263.791 6.98522 263.948 7.03129C264.177 7.09867 264.367 6.87468 264.13 7.35847L264.495 7.54184C264.513 7.37357 264.502 7.24778 264.313 7.2365V7.17809C264.504 7.19365 264.476 6.96207 264.556 6.90297C264.63 6.84839 264.797 6.8966 264.86 6.77978L264.495 6.20423L264.956 6.44539L265.073 6.63083L265.226 6.62914C265.033 6.25712 265.92 6.42984 264.891 5.65636ZM269.971 6.02163C269.752 5.80239 269.435 6.68886 269.971 6.538L269.849 6.23358C269.944 6.21672 270.036 6.08763 269.971 6.02163ZM270.823 6.69009L270.671 6.20523C270.284 6.35065 270.5 6.68364 270.823 6.69009ZM266.196 7.18047C265.834 7.09231 265.857 6.3669 265.408 6.38652C265.385 6.49752 265.411 6.53769 265.452 6.626C265.488 6.70251 265.955 7.28365 266.015 7.33041C266.128 7.41795 266.242 7.23819 266.196 7.18047ZM272.161 6.38652L271.979 6.38614L271.978 6.56904L271.797 6.50711C271.755 6.80416 271.5 6.98239 271.615 7.29867L271.796 7.29899C271.717 7.01925 271.965 7.00278 272.023 6.91684C272.051 6.87429 272.19 6.4145 272.161 6.38652ZM268.102 7.34467C268.041 7.2339 268.156 7.11745 268.119 7.05437C267.717 6.75087 268.027 7.57901 268.206 7.66356C268.294 7.40975 268.122 7.38063 268.102 7.34467ZM267.05 7.11646C266.758 7.09246 266.724 7.40408 266.442 7.3896C266.651 7.49063 266.649 7.55394 266.625 7.78522C266.932 7.49277 266.808 8.07461 267.223 8.04333L267.24 8.2004L267.476 8.21128L267.477 7.72404H267.234C267.337 7.47967 267.376 7.48771 267.232 7.23827L267.051 7.48112L267.05 7.11646ZM271.248 7.11638C271.19 7.07812 271.047 7.13026 271.007 7.2073C271.307 7.45483 270.995 7.56307 270.953 7.70833C270.92 7.82554 271.022 8.02133 270.883 8.17932L271.027 8.26494L271.245 8.1531C271.229 8.29845 271.477 8.3656 271.492 8.42723C271.505 8.48357 271.13 8.96123 271.617 8.65744L271.603 8.25368L271.366 8.05559L271.492 7.66395L271.188 7.96744C271.205 7.79174 271.42 7.22984 271.248 7.11638ZM264.983 7.84302C264.961 7.82186 265.138 7.49292 264.617 7.54191L264.627 7.7761C264.987 7.80255 265.082 8.33869 265.463 8.26571L265.53 8.02884C265.452 8.05429 265.005 7.86349 264.983 7.84302ZM266.625 8.14996C266.637 7.92796 266.335 7.98653 266.199 7.84601C266.09 8.00393 266.429 8.63429 266.452 8.16L266.625 8.14996ZM274.352 9.36713C274.018 9.30803 273.852 9.64893 273.56 9.67138L273.622 9.85276L273.318 9.79205L273.222 10.1001L273.013 10.0964C273.114 9.56867 272.749 10.0702 272.56 10.1629C272.465 10.2094 272.358 10.1241 272.284 10.2487L272.709 10.2794L272.616 10.462C272.539 10.6379 272.979 10.6081 273.073 10.4616L273.104 10.6438L273.348 10.2804L273.326 10.5021C273.296 10.7301 273.802 10.6076 273.923 10.5497C274.297 10.3694 274.349 9.73018 274.352 9.36713ZM272.222 9.91401C272.289 9.67254 272.3 9.4789 271.979 9.48871C271.955 9.67798 271.986 9.9101 272.222 9.91401ZM266.49 9.74436C266.431 9.70704 265.898 9.77189 266.017 9.91294C266.14 9.95349 266.673 10.1988 266.746 10.0958C266.799 9.83942 266.663 9.95449 266.569 9.87898C266.521 9.84073 266.512 9.75793 266.49 9.74436ZM263.995 10.0487C263.937 9.9423 263.366 9.83252 263.218 9.79266C263.053 9.97794 263.974 10.3154 264.008 10.2787C264.018 10.2679 264.018 10.0925 263.995 10.0487ZM264.982 9.91455L264.13 9.79312C264.204 10.0994 264.913 10.3327 264.982 9.91455ZM273.378 10.9486L272.1 11.0096V11.2519C272.315 11.266 272.48 11.2791 272.647 11.1307C272.67 11.292 272.501 11.3336 272.381 11.3693L272.344 11.5562C272.602 11.5752 272.593 11.5881 272.703 11.4025C272.764 11.3013 272.686 11.2868 272.891 11.3136C272.966 11.3828 272.266 12.0267 272.831 11.9827L272.831 11.7996C273.056 12.1914 273.576 11.282 273.499 11.1918L273.318 11.2524L273.378 10.9486ZM272.403 12.2245C272.385 12.238 272.126 12.0122 271.979 12.1044L272.161 12.2265C271.99 12.3753 271.936 12.3901 271.979 12.651L272.251 12.5291C272.412 12.6031 272.244 12.7858 272.283 12.8334C272.375 12.944 272.488 12.5496 272.547 12.4894C272.686 12.3475 272.908 12.4108 272.831 12.1041C272.712 12.1198 272.55 12.0747 272.444 12.1032C272.387 12.1183 272.408 12.2206 272.403 12.2245ZM266.685 12.6516C266.49 12.5921 266.361 12.9287 266.285 12.9461C266.228 12.9592 266.101 12.8855 265.992 12.8945C265.653 12.9225 265.476 13.322 265.468 13.6243L265.712 13.6546C265.591 13.7351 265.295 14.2126 265.255 14.2323C265.064 14.3267 265.277 13.9422 265.283 13.8952C265.306 13.7085 265.274 13.5088 265.286 13.3207C264.787 13.4505 264.624 14.3781 264.035 14.1146L264.008 13.7464L263.339 14.0497C263.401 13.8707 264.252 13.5168 264.039 13.3817C262.403 13.9749 260.774 14.509 259.114 15.027C258.249 15.2747 257.413 15.6602 256.524 15.8147L256.524 15.9965C259.095 16.1863 261.526 17.0444 263.914 17.9417L264.008 17.8224C263.862 17.7797 263.069 17.432 263.279 17.2135C263.478 17.1459 263.567 17.4211 263.682 17.4443C263.824 17.473 264.009 17.2665 264.091 17.2808C264.188 17.2975 264.489 17.7398 264.799 17.5776L264.734 17.4299L264.86 17.3656L264.679 17.1212C265.014 16.9882 264.771 16.8339 264.809 16.5898C264.838 16.4097 265.076 16.144 265.152 15.9535C265.411 15.3003 265.331 15.1541 265.735 14.4689C265.765 14.4181 265.966 13.7584 266.076 13.9633C266.047 14.091 266.495 14.9277 266.624 14.7798C266.63 14.4102 266.232 14.1797 266.207 13.7916L266.443 13.3816L266.471 13.6855L266.836 13.7439L266.898 13.9273L267.111 13.7153L266.928 13.6851C267.047 13.4361 266.821 13.4555 266.686 13.2896C267.025 13.1159 266.885 12.961 266.564 12.9548L266.685 12.6516ZM248.045 24.475C247.041 23.6668 245.62 23.211 244.338 23.1854C244.054 23.2235 243.958 23.6333 244.082 23.844C244.193 24.0328 244.864 23.9487 245.103 23.9791C251.243 25.0451 251.892 35.2419 249.456 39.7379C248.153 42.3059 246.529 43.7624 243.553 42.3167C239.082 39.6802 238.169 31.1942 241.679 27.4185C244.785 23.729 248.075 25.9661 249.035 29.9626C249.995 33.3044 249.506 42.2337 244.369 41.1353C239.803 38.9295 239.772 29.5451 244.313 27.2369C248.287 25.7733 248.245 34.912 247.456 37.0693C245.297 43.2582 242.072 37.4581 242.307 33.8567C242.407 32.2294 243.006 29.673 244.537 28.7986C247.199 27.2834 246.846 36.7989 245.843 37.7686C244.425 39.459 243.605 34.7478 243.65 33.9201C243.627 33.2174 243.979 31.3197 244.311 30.7013C244.415 30.5067 244.762 30.0681 244.842 30.5055C244.953 31.1174 244.614 31.9516 244.545 32.5781C244.264 33.4265 244.848 39.7379 245.985 36.2069C246.101 35.4611 246.217 27.4126 244.233 29.65C243.722 30.1458 243.395 31.1132 243.215 31.7957C242.639 33.9258 242.89 36.6631 244.083 38.5024C244.141 38.5608 244.639 38.8925 244.706 38.9128C247.908 39.4423 247.415 32.4769 247.213 30.5071C247.051 29.3269 246.328 27.3575 244.814 27.7978C244.755 27.8089 243.805 28.3163 243.763 28.3595C241.344 30.8486 241.018 34.7537 242.245 37.9669C243.516 41.2959 246.518 41.5039 247.896 38.1176C249.403 35.2301 249.071 23.9489 243.692 26.6156C238.464 29.263 239.041 41.8793 245.596 42.0717C248.771 41.8686 250.039 37.3754 250.234 34.8112C251.061 27.4387 245.071 19.9049 239.743 28.6897C238.492 30.8228 238.512 32.7253 238.887 35.1198C239.524 42.6698 247.495 48.0179 250.896 38.8052C252.449 34.3855 251.61 27.7386 248.045 24.475ZM264.333 24.8564C261.509 22.5612 258.382 22.8473 256.501 26.1003C253.235 30.9265 254.22 42.3996 261.064 43.4835C261.411 43.5244 262.261 43.6095 262.305 43.1491C262.362 42.559 261.567 42.785 261.246 42.7533C254.311 41.7104 254.189 29.4369 258.195 25.2398C259.723 23.5584 262.395 24.0736 263.951 25.4531C266.14 27.3932 267.164 32.2498 266.68 34.9987C266.275 37.294 264.042 40.9369 261.539 41.239C256.25 40.9907 256.329 32.4572 257.649 28.8295C257.964 27.9346 258.944 26.434 259.816 26.0084C260.109 25.8657 260.992 25.7008 261.312 25.682C263.91 25.8887 265.235 29.838 265.413 32.0244C265.862 38.207 259.401 44.3261 258.411 34.6394C258.234 32.8204 258.609 29.4941 259.76 28.0202C262.467 25.0689 264.189 30.9092 264.003 32.9302C263.909 34.5335 263.288 37.1726 261.759 37.9873C261.282 38.242 261.005 38.2903 260.599 37.8663C259.418 36.2188 259.453 30.8448 260.508 29.1327C262.136 27.4575 262.886 33.0942 262.604 33.9654C262.462 34.6223 262.194 36.2181 261.576 36.5556C261.565 36.4331 261.474 36.3387 261.457 36.2177C261.379 35.6731 261.668 34.9942 261.744 34.4434C261.911 33.2285 261.844 31.0265 261.301 29.9255C261.05 29.4157 260.556 29.8734 260.434 30.2145C260.312 30.5548 260.303 31.4476 260.294 31.8393C260.307 33.2177 260.292 36.4897 261.189 37.5194C261.905 37.7605 262.656 36.3855 262.85 35.8535C263.637 33.8775 263.789 29.1827 261.649 28.057C258.459 27.4472 258.916 34.3425 259.083 36.2786C259.415 38.2684 260.442 40.0347 262.518 38.3803C265.545 35.8551 265.743 28.0549 261.781 26.4645C257.575 26.0807 257.35 33.0516 257.758 35.9006C259.116 43.898 264.861 40.2678 266.118 34.5698C266.6 31.8508 265.525 27.1165 263.091 25.5203C255.22 22.0835 254.372 37.3951 258.565 40.8723C261.912 43.9724 265.52 40.2037 266.963 37.2284C268.592 33.8242 267.108 27.3236 264.333 24.8564ZM266.116 46.6756C265.789 46.2569 263.64 45.6506 264.411 46.7066C264.576 46.9334 264.832 46.9221 264.917 47.1616C264.897 47.2735 264.149 47.8408 264.015 47.9667C263.359 48.5824 263.436 48.711 262.502 49.0703C260.517 49.834 259.006 50.1706 256.862 50.3048C252.004 50.7153 247.211 50.8246 243.168 47.7485L243.167 47.5637C243.471 47.4341 243.53 47.1755 243.686 46.9859C243.825 46.8167 244.151 46.7629 244.042 46.3923C243.942 46.0524 243.61 46.3281 243.444 46.3794C243.154 46.469 242.4 46.6823 242.273 46.9723C242.223 47.0856 242.247 47.2374 242.196 47.3216C242.121 47.447 241.737 47.4563 241.735 47.7767C241.734 47.939 241.903 48.1689 241.954 48.3554C242.004 48.5405 242.145 49.393 242.181 49.435C242.322 49.6006 242.71 49.4221 242.792 49.2521C242.899 49.0302 242.527 48.4192 242.805 48.1128C242.946 48.2429 243.005 48.4509 243.113 48.595C243.37 48.9366 243.9 49.4285 244.077 49.761C244.718 50.9674 245.118 52.7096 245.665 54.0119C246.358 55.8023 247.585 56.8324 248.583 58.3937C249.286 59.2161 252.033 60.3737 253.088 60.3426C254.082 60.3132 256.321 59.0229 257.13 58.4187C258.819 57.1569 259.11 56.2892 260.21 54.6251C261.731 52.2681 263.574 50.5991 265.255 48.4159C265.318 48.3504 265.362 48.2739 265.468 48.2954C265.6 48.4461 264.974 49.8432 265.838 49.4239C265.986 49.0861 266.137 48.6978 266.304 48.3716C266.343 48.2933 266.422 48.2928 266.46 48.2189C266.613 47.9219 266.714 47.4097 266.579 47.094C266.485 46.8742 266.214 46.8886 266.116 46.6756Z" fill="white"/>
<path d="M274.17 19.1591C274.359 19.2076 274.165 19.3931 274.288 19.4966C274.331 19.5246 275.35 19.6514 275.143 19.8279L274.9 19.8287L274.96 20.0101C274.766 19.9968 274.632 19.8604 274.593 20.1313C274.494 20.2039 274.238 19.7066 274.113 20.1545L274.412 20.6189L274.139 20.4359L274.108 20.6794L273.956 20.3762C273.74 20.3084 273.823 20.5805 273.622 20.5579L273.926 19.8286L273.317 20.1318L273.561 19.7073C273.433 19.7145 273.3 19.6529 273.257 19.5248L273.5 19.3728L272.831 18.7948L273.531 19.2188L273.617 19.0746L271.675 15.4489C272.525 16.7255 273.114 18.1875 274.078 19.4012L274.17 19.1591Z" fill="white"/>
<path d="M273.781 14.3788C274.174 14.6742 274.606 14.9423 274.961 15.2657L274.717 15.2957L274.669 15.4999L276.133 16.8015L276.361 16.8482L276.362 16.6049C276.463 16.5902 276.428 16.7597 276.516 16.7867C276.71 16.8469 277.074 16.2618 277.273 16.1788L277.328 16.4147C277.138 16.5115 276.705 16.8231 276.722 17.0539C276.899 17.2063 277.008 17.3353 277.267 17.341L277.273 17.5775C277.152 17.5968 277.03 17.4682 276.928 17.4676C276.835 17.4671 276.788 17.5733 276.696 17.5799C276.681 17.5811 276.579 17.3088 276.45 17.4538C276.514 17.7877 276.211 18.1016 276.188 18.3543C276.173 18.5054 276.33 18.5784 276.299 18.7334C275.746 18.3874 276.424 17.754 276.067 17.3528C276.055 17.2717 276.254 17.1382 276.109 16.9773L275.448 16.9079C275.363 16.668 275.832 16.8885 275.752 16.6966L273.684 14.8098C273.738 14.7143 273.821 14.8303 273.873 14.8638C273.997 14.9442 274.347 15.2759 274.414 15.2964C274.623 15.3608 274.646 15.1747 274.506 15.0216C274.334 14.8333 273.845 14.6008 273.624 14.4135L273.624 14.2931C273.635 14.2794 273.753 14.3574 273.781 14.3788Z" fill="white"/>
<path d="M253.18 15.2661L253.339 15.0303C253.997 14.9141 255.214 13.9345 255.824 14.0517C256.323 14.1474 255.897 14.5663 255.613 14.6886C255.194 14.8686 254.478 14.8461 253.969 14.9915C253.696 15.0695 253.466 15.2594 253.18 15.2661Z" fill="white"/>
<path d="M277.517 12.894L278.003 12.6513L277.881 12.9839L278.247 13.0771L277.882 13.1991L278.247 13.3817C278.076 13.557 278.023 13.468 278.125 13.7456L277.943 13.6851C277.904 13.73 278.108 14.0309 277.943 14.0495C277.698 13.7548 277.88 13.2543 277.473 13.1488C277.145 13.0636 277.403 13.5512 277.152 13.5025C277.111 13.2105 276.886 13.3068 277.03 12.9555L274.718 12.4691L277.273 12.8328L277.029 12.4387L277.154 12.437L277.273 12.2864C277.259 12.6115 277.677 12.5206 277.517 12.894Z" fill="white"/>
<path d="M267.965 16.665C267.968 16.8506 267.977 17.0321 267.938 17.2163C267.895 17.4161 267.656 17.6765 267.658 17.7903C267.658 17.8163 268.051 18.0028 267.517 18.0676L267.387 17.8828C267.228 18.0165 267.066 18.0656 267.074 18.3087L266.687 18.8545L266.87 18.2471C266.855 18.2309 266.323 18.199 266.505 18.0646C266.615 18.055 266.779 18.0981 266.872 18.0356C266.973 17.9672 267.217 17.1527 267.305 17.1004C267.373 17.0603 267.508 17.1224 267.588 17.0786C267.699 17.018 267.716 16.5633 267.965 16.665Z" fill="white"/>
<path d="M275.63 13.989C275.41 13.9571 275.322 13.8322 275.083 13.9286C275.132 13.2793 274.85 13.5809 274.779 13.3819L275.286 13.4982C275.482 13.3586 275.423 13.0646 275.69 13.0164C275.745 13.3052 275.498 13.4229 275.407 13.655L275.63 13.989Z" fill="white"/>
<path d="M254.761 13.016C254.659 12.9899 254.62 12.8778 254.594 12.7879C254.427 12.0858 254.156 11.1888 254.154 10.4615C254.317 10.7443 254.68 12.6642 254.761 13.016Z" fill="white"/>
<path d="M279.768 7.90716L279.707 8.5149L279.281 8.39318C279.264 8.09367 279.485 8.17393 279.611 8.09582C279.697 8.04307 279.569 7.85618 279.768 7.90716Z" fill="white"/>
<path d="M268.572 14.1114C268.629 14.4332 268.426 14.203 268.322 14.3295C268.246 14.432 268.202 14.7623 268.207 14.9015L267.964 14.84C267.99 14.6829 268.048 14.5105 268.145 14.3823C268.185 14.3282 268.5 14.0391 268.572 14.1114Z" fill="white"/>
<path d="M257.073 7.41827L255.857 8.20984C255.829 8.07393 256.01 8.01581 256.107 7.94369C256.408 7.71724 256.739 7.52122 257.043 7.29822L257.073 7.41827Z" fill="white"/>
<path d="M275.084 9.66941L275.083 9.48866C275.302 9.48161 275.536 9.45684 275.691 9.64044C275.529 9.83522 275.284 9.68007 275.084 9.66941Z" fill="white"/>
<path d="M276.665 3.04032C276.657 3.24132 276.798 3.67298 276.483 3.70924C276.506 3.52817 276.391 3.03534 276.665 3.04032Z" fill="white"/>
<path d="M270.91 19.5516C270.855 19.5981 270.888 19.6939 270.705 19.6433L270.64 19.4337C270.858 19.428 270.803 19.2985 270.915 19.1604L271.063 19.428C271.051 19.4698 270.955 19.5131 270.91 19.5516Z" fill="white"/>
<path d="M272.431 14.7546C272.565 14.8945 272.85 15.0779 272.831 15.2666C272.756 15.1481 271.849 14.4432 272.071 14.3545C272.218 14.4628 272.313 14.6312 272.431 14.7546Z" fill="white"/>
<path d="M276.238 13.9887C276.236 14.3393 275.801 14.389 275.692 14.0792C275.782 14.0111 275.897 14.1292 276.018 14.1133C276.052 14.1089 276.072 13.9105 276.238 13.9887Z" fill="white"/>
<path d="M259.751 54.1342C259.333 55.7365 257.264 57.4292 255.964 58.4105C255.567 58.7037 254.275 59.5315 253.851 59.6406C252.963 59.8687 251.231 59.3307 250.382 58.9686C250.128 58.8601 249.11 58.2797 249.051 58.0446C249.019 57.9177 249.403 57.317 249.503 57.1795C249.658 56.9666 250.357 56.1602 250.533 56.0198C250.731 55.8625 251.033 55.7805 251.253 55.644C252.48 54.7699 253.888 54.1503 255.308 55.0482L254.793 55.7159C254.558 55.9668 254.162 56.2085 254.003 56.5078C253.96 56.5877 253.916 56.7143 254.063 56.6898C255.353 55.5852 256.561 54.2422 258.387 54.0783C258.845 54.0209 259.294 54.1782 259.751 54.1342Z" fill="white"/>
<path d="M263.185 16.8201C263.168 16.8093 263.151 16.7606 263.107 16.7335C262.951 16.638 262.601 16.633 262.759 16.4191C262.913 16.2109 263.667 16.2836 263.645 16.6903C263.623 17.099 263.388 16.9445 263.185 16.8201Z" fill="white"/>
</svg>
